<svg width="100" height="46" viewBox="0 0 100 46" fill="none" xmlns="http://www.w3.org/2000/svg">
<g filter="url(#filter0_i_31_20895)">
<path d="M16.7041 34.624C16.5761 34.7093 16.5334 34.7947 16.5761 34.88C16.6187 34.9653 16.7041 35.008 16.8321 35.008H32.0641C32.3627 35.008 32.5974 35.0933 32.7681 35.264C32.9387 35.4347 33.0241 35.6693 33.0241 35.968V44.352C33.0241 44.6507 32.9387 44.8853 32.7681 45.056C32.5974 45.2267 32.3627 45.312 32.0641 45.312H1.34408C1.04541 45.312 0.810745 45.2267 0.640078 45.056C0.469412 44.8853 0.384078 44.6507 0.384078 44.352V36.48C0.384078 36.0107 0.554745 35.6267 0.896078 35.328C2.81608 33.664 4.73608 31.8507 6.65608 29.888C8.61875 27.9253 9.85608 26.688 10.3681 26.176C10.3681 26.176 11.7974 24.7467 14.6561 21.888C18.4961 18.1333 20.4161 15.4453 20.4161 13.824C20.4161 12.8 20.0321 11.968 19.2641 11.328C18.4961 10.6453 17.5147 10.304 16.3201 10.304C15.0827 10.304 14.0801 10.6453 13.3121 11.328C12.5441 11.968 12.1601 12.8427 12.1601 13.952V15.232C12.1601 15.5307 12.0747 15.7653 11.9041 15.936C11.7334 16.1067 11.4987 16.192 11.2001 16.192H0.960078C0.661412 16.192 0.426745 16.1067 0.256078 15.936C0.0854115 15.7653 7.82013e-05 15.5307 7.82013e-05 15.232V12.032C0.170745 9.60001 0.981412 7.48801 2.43208 5.69601C3.92541 3.86134 5.86675 2.45334 8.25608 1.47201C10.6881 0.490677 13.3761 1.14441e-05 16.3201 1.14441e-05C19.6054 1.14441e-05 22.4854 0.618678 24.9601 1.85601C27.4347 3.05068 29.3121 4.69334 30.5921 6.78401C31.9147 8.83201 32.5761 11.0933 32.5761 13.568C32.5761 15.3173 32.1494 17.0453 31.2961 18.752C30.4854 20.4587 29.2694 22.2507 27.6481 24.128C25.9414 26.048 23.2107 28.6933 19.4561 32.064L16.7041 34.624ZM67.9151 24.384C68.7257 26.3467 69.1311 28.416 69.1311 30.592C69.1311 32.896 68.7044 35.008 67.8511 36.928C66.6991 39.5733 64.7791 41.7067 62.0911 43.328C59.4031 44.9067 56.3311 45.696 52.8751 45.696C49.4191 45.696 46.3684 44.928 43.7231 43.392C41.0777 41.8133 39.1364 39.6587 37.8991 36.928C37.3871 35.776 37.0244 34.4533 36.8111 32.96V32.704C36.8111 32.192 37.1097 31.936 37.7071 31.936H48.2031C48.7151 31.936 49.0564 32.2133 49.2271 32.768C49.4831 33.2373 49.6324 33.5147 49.6751 33.6C50.4004 34.7947 51.4244 35.392 52.7471 35.392C54.1551 35.392 55.2431 34.816 56.0111 33.664C56.5657 32.8107 56.8431 31.7867 56.8431 30.592C56.8431 29.5253 56.6084 28.608 56.1391 27.84C55.7977 27.328 55.3497 26.9227 54.7951 26.624C54.2831 26.2827 53.7071 26.112 53.0671 26.112C52.3844 26.112 51.6804 26.304 50.9551 26.688C50.2724 27.0293 49.7817 27.456 49.4831 27.968C49.2271 28.48 48.8857 28.736 48.4591 28.736H37.7711C37.4724 28.736 37.2377 28.6507 37.0671 28.48C36.8964 28.3093 36.8111 28.0747 36.8111 27.776V1.47201C36.8111 1.17334 36.8964 0.938676 37.0671 0.768009C37.2377 0.597342 37.4724 0.512009 37.7711 0.512009H66.7631C67.0617 0.512009 67.2964 0.597342 67.4671 0.768009C67.6377 0.938676 67.7231 1.17334 67.7231 1.47201V9.85601C67.7231 10.1547 67.6377 10.3893 67.4671 10.56C67.2964 10.7307 67.0617 10.816 66.7631 10.816H49.1631C48.9497 10.816 48.8431 10.9227 48.8431 11.136V16.832C48.8431 17.088 48.9711 17.152 49.2271 17.024C50.7631 16.1707 52.5764 15.744 54.6671 15.744C57.6537 15.744 60.3204 16.5333 62.6671 18.112C65.0137 19.648 66.7631 21.7387 67.9151 24.384ZM98.5511 21.504C98.8497 21.504 99.0844 21.5893 99.2551 21.76C99.4257 21.9307 99.5111 22.1653 99.5111 22.464V30.784C99.5111 31.0827 99.4257 31.3173 99.2551 31.488C99.0844 31.6587 98.8497 31.744 98.5511 31.744H91.1271C90.9137 31.744 90.8071 31.8507 90.8071 32.064V39.488C90.8071 39.7867 90.7217 40.0213 90.5511 40.192C90.3804 40.3627 90.1457 40.448 89.8471 40.448H81.5271C81.2284 40.448 80.9937 40.3627 80.8231 40.192C80.6524 40.0213 80.5671 39.7867 80.5671 39.488V32.064C80.5671 31.8507 80.4604 31.744 80.2471 31.744H72.8231C72.5244 31.744 72.2897 31.6587 72.1191 31.488C71.9484 31.3173 71.8631 31.0827 71.8631 30.784V22.464C71.8631 22.1653 71.9484 21.9307 72.1191 21.76C72.2897 21.5893 72.5244 21.504 72.8231 21.504H80.2471C80.4604 21.504 80.5671 21.3973 80.5671 21.184V13.76C80.5671 13.4613 80.6524 13.2267 80.8231 13.056C80.9937 12.8853 81.2284 12.8 81.5271 12.8H89.8471C90.1457 12.8 90.3804 12.8853 90.5511 13.056C90.7217 13.2267 90.8071 13.4613 90.8071 13.76V21.184C90.8071 21.3973 90.9137 21.504 91.1271 21.504H98.5511Z" fill="white"/>
</g>
<defs>
<filter id="filter0_i_31_20895" x="0" y="0" width="99.5112" height="49.696" filterUnits="userSpaceOnUse" color-interpolation-filters="sRGB">
<feFlood flood-opacity="0" result="BackgroundImageFix"/>
<feBlend mode="normal" in="SourceGraphic" in2="BackgroundImageFix" result="shape"/>
<feColorMatrix in="SourceAlpha" type="matrix" values="0 0 0 0 0 0 0 0 0 0 0 0 0 0 0 0 0 0 127 0" result="hardAlpha"/>
<feOffset dy="4"/>
<feGaussianBlur stdDeviation="2"/>
<feComposite in2="hardAlpha" operator="arithmetic" k2="-1" k3="1"/>
<feColorMatrix type="matrix" values="0 0 0 0 0 0 0 0 0 0 0 0 0 0 0 0 0 0 0.71 0"/>
<feBlend mode="normal" in2="shape" result="effect1_innerShadow_31_20895"/>
</filter>
</defs>
</svg>
